<svg width="198" height="34" viewBox="0 0 198 34" fill="none" xmlns="http://www.w3.org/2000/svg">
<rect x="0.221924" y="0.50592" width="197.596" height="32.9326" rx="10" fill="white"/>
<path d="M59.8709 22.3599C58.6109 22.3599 57.3749 21.9159 56.7509 21.2679L57.0989 20.5839C57.6989 21.1719 58.7669 21.6039 59.8709 21.6039C61.4429 21.6039 62.1269 20.9439 62.1269 20.1159C62.1269 17.8119 56.9549 19.2279 56.9549 16.1199C56.9549 14.8839 57.9149 13.8159 60.0509 13.8159C60.9989 13.8159 61.9829 14.0919 62.6549 14.5599L62.3549 15.2679C61.6349 14.7999 60.7949 14.5719 60.0509 14.5719C58.5149 14.5719 57.8309 15.2559 57.8309 16.0959C57.8309 18.3999 63.0029 17.0079 63.0029 20.0679C63.0029 21.3039 62.0189 22.3599 59.8709 22.3599ZM65.1897 14.5959C64.8417 14.5959 64.5657 14.3199 64.5657 13.9839C64.5657 13.6599 64.8417 13.3839 65.1897 13.3839C65.5377 13.3839 65.8137 13.6479 65.8137 13.9719C65.8137 14.3199 65.5497 14.5959 65.1897 14.5959ZM64.7577 22.2879V15.9759H65.6097V22.2879H64.7577ZM73.0084 15.9759H73.8244V21.5199C73.8244 23.6919 72.7564 24.6759 70.6684 24.6759C69.5164 24.6759 68.3884 24.3279 67.7284 23.7039L68.1604 23.0559C68.7604 23.5959 69.6724 23.9199 70.6444 23.9199C72.2404 23.9199 72.9724 23.1879 72.9724 21.6279V20.8239C72.4444 21.6279 71.5444 22.0479 70.5124 22.0479C68.7124 22.0479 67.3444 20.7879 67.3444 18.9759C67.3444 17.1639 68.7124 15.9279 70.5124 15.9279C71.5684 15.9279 72.4804 16.3599 73.0084 17.1879V15.9759ZM70.5964 21.2919C71.9884 21.2919 72.9964 20.3439 72.9964 18.9759C72.9964 17.6079 71.9884 16.6719 70.5964 16.6719C69.2044 16.6719 68.2084 17.6079 68.2084 18.9759C68.2084 20.3439 69.2044 21.2919 70.5964 21.2919ZM79.423 15.9279C80.959 15.9279 82.015 16.8159 82.015 18.6279V22.2879H81.163V18.7119C81.163 17.3799 80.467 16.6959 79.267 16.6959C77.911 16.6959 77.059 17.5359 77.059 18.9759V22.2879H76.207V15.9759H77.023V17.1399C77.479 16.3719 78.331 15.9279 79.423 15.9279ZM87.9007 14.5959C87.5527 14.5959 87.2767 14.3199 87.2767 13.9839C87.2767 13.6599 87.5527 13.3839 87.9007 13.3839C88.2487 13.3839 88.5247 13.6479 88.5247 13.9719C88.5247 14.3199 88.2607 14.5959 87.9007 14.5959ZM87.4687 22.2879V15.9759H88.3207V22.2879H87.4687ZM93.9073 15.9279C95.4433 15.9279 96.4993 16.8159 96.4993 18.6279V22.2879H95.6473V18.7119C95.6473 17.3799 94.9513 16.6959 93.7513 16.6959C92.3953 16.6959 91.5433 17.5359 91.5433 18.9759V22.2879H90.6913V15.9759H91.5073V17.1399C91.9633 16.3719 92.8153 15.9279 93.9073 15.9279ZM110.437 15.9759H111.217L108.829 22.2879H108.025L106.033 17.1159L104.041 22.2879H103.237L100.861 15.9759H101.677L103.657 21.3399L105.685 15.9759H106.417L108.433 21.3399L110.437 15.9759ZM112.932 14.5959C112.584 14.5959 112.308 14.3199 112.308 13.9839C112.308 13.6599 112.584 13.3839 112.932 13.3839C113.28 13.3839 113.556 13.6479 113.556 13.9719C113.556 14.3199 113.292 14.5959 112.932 14.5959ZM112.5 22.2879V15.9759H113.352V22.2879H112.5ZM118.747 21.2919L119.047 21.9039C118.711 22.2039 118.207 22.3479 117.715 22.3479C116.527 22.3479 115.867 21.6759 115.867 20.5119V16.6959H114.739V15.9759H115.867V14.5959H116.719V15.9759H118.639V16.6959H116.719V20.4639C116.719 21.2079 117.103 21.6159 117.811 21.6159C118.159 21.6159 118.507 21.5079 118.747 21.2919ZM123.814 15.9279C125.35 15.9279 126.406 16.8159 126.406 18.6279V22.2879H125.554V18.7119C125.554 17.3799 124.858 16.6959 123.658 16.6959C122.302 16.6959 121.45 17.5359 121.45 18.9759V22.2879H120.598V13.3839H121.45V17.0799C121.918 16.3479 122.746 15.9279 123.814 15.9279ZM138.315 22.2879L137.307 20.0439H132.627L131.619 22.2879H130.695L134.535 13.8879H135.411L139.251 22.2879H138.315ZM132.951 19.3239H136.983L134.967 14.8119L132.951 19.3239ZM143.713 15.9279C145.513 15.9279 146.857 17.2239 146.857 19.1319C146.857 21.0519 145.513 22.3479 143.713 22.3479C142.705 22.3479 141.841 21.9159 141.313 21.0999V24.6159H140.461V15.9759H141.277V17.2239C141.793 16.3839 142.669 15.9279 143.713 15.9279ZM143.653 21.5919C144.985 21.5919 146.005 20.6079 146.005 19.1319C146.005 17.6679 144.985 16.6719 143.653 16.6719C142.309 16.6719 141.301 17.6679 141.301 19.1319C141.301 20.6079 142.309 21.5919 143.653 21.5919ZM151.846 15.9279C153.646 15.9279 154.99 17.2239 154.99 19.1319C154.99 21.0519 153.646 22.3479 151.846 22.3479C150.838 22.3479 149.974 21.9159 149.446 21.0999V24.6159H148.594V15.9759H149.41V17.2239C149.926 16.3839 150.802 15.9279 151.846 15.9279ZM151.786 21.5919C153.118 21.5919 154.138 20.6079 154.138 19.1319C154.138 17.6679 153.118 16.6719 151.786 16.6719C150.442 16.6719 149.434 17.6679 149.434 19.1319C149.434 20.6079 150.442 21.5919 151.786 21.5919ZM156.726 22.2879V13.3839H157.578V22.2879H156.726ZM165.457 19.1319C165.457 19.2039 165.445 19.2999 165.445 19.3959H160.165C160.261 20.7159 161.269 21.5919 162.649 21.5919C163.417 21.5919 164.101 21.3159 164.581 20.7639L165.061 21.3159C164.497 21.9879 163.621 22.3479 162.625 22.3479C160.657 22.3479 159.313 21.0039 159.313 19.1319C159.313 17.2599 160.621 15.9279 162.397 15.9279C164.173 15.9279 165.457 17.2359 165.457 19.1319ZM162.397 16.6599C161.173 16.6599 160.273 17.5239 160.165 18.7599H164.641C164.533 17.5239 163.633 16.6599 162.397 16.6599Z" fill="#858585"/>
<g clip-path="url(#clip0_1163_71)">
<path d="M33.5335 9.52879C34.5509 8.19792 35.9654 8.19144 35.9654 8.19144C35.9654 8.19144 36.1758 9.44268 35.1651 10.648C34.0858 11.9351 32.859 11.7245 32.859 11.7245C32.859 11.7245 32.6287 10.7122 33.5335 9.52879ZM32.9884 12.601C33.5119 12.601 34.4833 11.8869 35.7478 11.8869C37.9244 11.8869 38.7807 13.4239 38.7807 13.4239C38.7807 13.4239 37.106 14.2737 37.106 16.3356C37.106 18.6616 39.1922 19.4632 39.1922 19.4632C39.1922 19.4632 37.7339 23.5368 35.764 23.5368C34.8593 23.5368 34.1559 22.9317 33.2026 22.9317C32.2312 22.9317 31.2672 23.5594 30.6393 23.5594C28.8405 23.5594 26.5681 19.6952 26.5681 16.589C26.5681 13.5329 28.4915 11.9297 30.2957 11.9297C31.4686 11.9297 32.3787 12.601 32.9884 12.601Z" fill="#999999"/>
</g>
<defs>
<clipPath id="clip0_1163_71">
<rect width="12.6242" height="15.3686" fill="white" transform="translate(26.5681 8.19019)"/>
</clipPath>
</defs>
</svg>
