<svg width="198" height="34" viewBox="0 0 198 34" fill="none" xmlns="http://www.w3.org/2000/svg">
<rect x="0.182251" y="0.50592" width="197.596" height="32.9326" rx="10" fill="white"/>
<path d="M57.0852 22.3599C56.4612 22.3599 55.8612 22.2599 55.2852 22.0599C54.7172 21.8599 54.2772 21.5959 53.9652 21.2679L54.3132 20.5839C54.6172 20.8879 55.0212 21.1359 55.5252 21.3279C56.0292 21.5119 56.5492 21.6039 57.0852 21.6039C57.8372 21.6039 58.4012 21.4679 58.7772 21.1959C59.1532 20.9159 59.3412 20.5559 59.3412 20.1159C59.3412 19.7799 59.2372 19.5119 59.0292 19.3119C58.8292 19.1119 58.5812 18.9599 58.2852 18.8559C57.9892 18.7439 57.5772 18.6239 57.0492 18.4959C56.4172 18.3359 55.9132 18.1839 55.5372 18.0399C55.1612 17.8879 54.8372 17.6599 54.5652 17.3559C54.3012 17.0519 54.1692 16.6399 54.1692 16.1199C54.1692 15.6959 54.2812 15.3119 54.5052 14.9679C54.7292 14.6159 55.0732 14.3359 55.5372 14.1279C56.0012 13.9199 56.5772 13.8159 57.2652 13.8159C57.7452 13.8159 58.2132 13.8839 58.6692 14.0199C59.1332 14.1479 59.5332 14.3279 59.8692 14.5599L59.5692 15.2679C59.2172 15.0359 58.8412 14.8639 58.4412 14.7519C58.0412 14.6319 57.6492 14.5719 57.2652 14.5719C56.5292 14.5719 55.9732 14.7159 55.5972 15.0039C55.2292 15.2839 55.0452 15.6479 55.0452 16.0959C55.0452 16.4319 55.1452 16.7039 55.3452 16.9119C55.5532 17.1119 55.8092 17.2679 56.1132 17.3799C56.4252 17.4839 56.8412 17.5999 57.3612 17.7279C57.9772 17.8799 58.4732 18.0319 58.8492 18.1839C59.2332 18.3279 59.5572 18.5519 59.8212 18.8559C60.0852 19.1519 60.2172 19.5559 60.2172 20.0679C60.2172 20.4919 60.1012 20.8799 59.8692 21.2319C59.6452 21.5759 59.2972 21.8519 58.8252 22.0599C58.3532 22.2599 57.7732 22.3599 57.0852 22.3599ZM61.9721 15.9759H62.8241V22.2879H61.9721V15.9759ZM62.4041 14.5959C62.2281 14.5959 62.0801 14.5359 61.9601 14.4159C61.8401 14.2959 61.7801 14.1519 61.7801 13.9839C61.7801 13.8239 61.8401 13.6839 61.9601 13.5639C62.0801 13.4439 62.2281 13.3839 62.4041 13.3839C62.5801 13.3839 62.7281 13.4439 62.8481 13.5639C62.9681 13.6759 63.0281 13.8119 63.0281 13.9719C63.0281 14.1479 62.9681 14.2959 62.8481 14.4159C62.7281 14.5359 62.5801 14.5959 62.4041 14.5959ZM71.0387 15.9759V21.5199C71.0387 22.5919 70.7747 23.3839 70.2467 23.8959C69.7267 24.4159 68.9387 24.6759 67.8827 24.6759C67.2987 24.6759 66.7427 24.5879 66.2147 24.4119C65.6947 24.2439 65.2707 24.0079 64.9427 23.7039L65.3747 23.0559C65.6787 23.3279 66.0467 23.5399 66.4787 23.6919C66.9187 23.8439 67.3787 23.9199 67.8587 23.9199C68.6587 23.9199 69.2467 23.7319 69.6227 23.3559C69.9987 22.9879 70.1867 22.4119 70.1867 21.6279V20.8239C69.9227 21.2239 69.5747 21.5279 69.1427 21.7359C68.7187 21.9439 68.2467 22.0479 67.7267 22.0479C67.1347 22.0479 66.5947 21.9199 66.1067 21.6639C65.6267 21.3999 65.2467 21.0359 64.9667 20.5719C64.6947 20.0999 64.5587 19.5679 64.5587 18.9759C64.5587 18.3839 64.6947 17.8559 64.9667 17.3919C65.2467 16.9279 65.6267 16.5679 66.1067 16.3119C66.5867 16.0559 67.1267 15.9279 67.7267 15.9279C68.2627 15.9279 68.7467 16.0359 69.1787 16.2519C69.6107 16.4679 69.9587 16.7799 70.2227 17.1879V15.9759H71.0387ZM67.8107 21.2919C68.2667 21.2919 68.6787 21.1959 69.0467 21.0039C69.4147 20.8039 69.6987 20.5279 69.8987 20.1759C70.1067 19.8239 70.2107 19.4239 70.2107 18.9759C70.2107 18.5279 70.1067 18.1319 69.8987 17.7879C69.6987 17.4359 69.4147 17.1639 69.0467 16.9719C68.6867 16.7719 68.2747 16.6719 67.8107 16.6719C67.3547 16.6719 66.9427 16.7679 66.5747 16.9599C66.2147 17.1519 65.9307 17.4239 65.7227 17.7759C65.5227 18.1279 65.4227 18.5279 65.4227 18.9759C65.4227 19.4239 65.5227 19.8239 65.7227 20.1759C65.9307 20.5279 66.2147 20.8039 66.5747 21.0039C66.9427 21.1959 67.3547 21.2919 67.8107 21.2919ZM76.6373 15.9279C77.4293 15.9279 78.0573 16.1599 78.5213 16.6239C78.9933 17.0799 79.2293 17.7479 79.2293 18.6279V22.2879H78.3773V18.7119C78.3773 18.0559 78.2133 17.5559 77.8853 17.2119C77.5573 16.8679 77.0893 16.6959 76.4813 16.6959C75.8013 16.6959 75.2613 16.8999 74.8613 17.3079C74.4693 17.7079 74.2733 18.2639 74.2733 18.9759V22.2879H73.4213V15.9759H74.2373V17.1399C74.4693 16.7559 74.7893 16.4599 75.1973 16.2519C75.6133 16.0359 76.0933 15.9279 76.6373 15.9279ZM84.683 15.9759H85.535V22.2879H84.683V15.9759ZM85.115 14.5959C84.939 14.5959 84.791 14.5359 84.671 14.4159C84.551 14.2959 84.491 14.1519 84.491 13.9839C84.491 13.8239 84.551 13.6839 84.671 13.5639C84.791 13.4439 84.939 13.3839 85.115 13.3839C85.291 13.3839 85.439 13.4439 85.559 13.5639C85.679 13.6759 85.739 13.8119 85.739 13.9719C85.739 14.1479 85.679 14.2959 85.559 14.4159C85.439 14.5359 85.291 14.5959 85.115 14.5959ZM91.1217 15.9279C91.9137 15.9279 92.5417 16.1599 93.0057 16.6239C93.4777 17.0799 93.7137 17.7479 93.7137 18.6279V22.2879H92.8617V18.7119C92.8617 18.0559 92.6977 17.5559 92.3697 17.2119C92.0417 16.8679 91.5737 16.6959 90.9657 16.6959C90.2857 16.6959 89.7457 16.8999 89.3457 17.3079C88.9537 17.7079 88.7577 18.2639 88.7577 18.9759V22.2879H87.9057V15.9759H88.7217V17.1399C88.9537 16.7559 89.2737 16.4599 89.6817 16.2519C90.0977 16.0359 90.5777 15.9279 91.1217 15.9279ZM108.431 15.9759L106.043 22.2879H105.239L103.247 17.1159L101.255 22.2879H100.451L98.0754 15.9759H98.8914L100.871 21.3399L102.899 15.9759H103.631L105.647 21.3399L107.651 15.9759H108.431ZM109.714 15.9759H110.566V22.2879H109.714V15.9759ZM110.146 14.5959C109.97 14.5959 109.822 14.5359 109.702 14.4159C109.582 14.2959 109.522 14.1519 109.522 13.9839C109.522 13.8239 109.582 13.6839 109.702 13.5639C109.822 13.4439 109.97 13.3839 110.146 13.3839C110.322 13.3839 110.47 13.4439 110.59 13.5639C110.71 13.6759 110.77 13.8119 110.77 13.9719C110.77 14.1479 110.71 14.2959 110.59 14.4159C110.47 14.5359 110.322 14.5959 110.146 14.5959ZM116.261 21.9039C116.101 22.0479 115.901 22.1599 115.661 22.2399C115.429 22.3119 115.185 22.3479 114.929 22.3479C114.337 22.3479 113.881 22.1879 113.561 21.8679C113.241 21.5479 113.081 21.0959 113.081 20.5119V16.6959H111.953V15.9759H113.081V14.5959H113.933V15.9759H115.853V16.6959H113.933V20.4639C113.933 20.8399 114.025 21.1279 114.209 21.3279C114.401 21.5199 114.673 21.6159 115.025 21.6159C115.201 21.6159 115.369 21.5879 115.529 21.5319C115.697 21.4759 115.841 21.3959 115.961 21.2919L116.261 21.9039ZM121.028 15.9279C121.82 15.9279 122.448 16.1599 122.912 16.6239C123.384 17.0799 123.62 17.7479 123.62 18.6279V22.2879H122.768V18.7119C122.768 18.0559 122.604 17.5559 122.276 17.2119C121.948 16.8679 121.48 16.6959 120.872 16.6959C120.192 16.6959 119.652 16.8999 119.252 17.3079C118.86 17.7079 118.664 18.2639 118.664 18.9759V22.2879H117.812V13.3839H118.664V17.0799C118.896 16.7119 119.216 16.4279 119.624 16.2279C120.032 16.0279 120.5 15.9279 121.028 15.9279ZM135.17 18.0879H136.022V21.2919C135.63 21.6359 135.166 21.8999 134.63 22.0839C134.094 22.2679 133.53 22.3599 132.938 22.3599C132.098 22.3599 131.342 22.1759 130.67 21.8079C129.998 21.4399 129.47 20.9319 129.086 20.2839C128.702 19.6279 128.51 18.8959 128.51 18.0879C128.51 17.2799 128.702 16.5519 129.086 15.9039C129.47 15.2479 129.998 14.7359 130.67 14.3679C131.342 13.9999 132.102 13.8159 132.95 13.8159C133.59 13.8159 134.178 13.9199 134.714 14.1279C135.25 14.3279 135.702 14.6279 136.07 15.0279L135.518 15.5919C134.854 14.9359 134.01 14.6079 132.986 14.6079C132.306 14.6079 131.69 14.7599 131.138 15.0639C130.594 15.3599 130.166 15.7759 129.854 16.3119C129.542 16.8399 129.386 17.4319 129.386 18.0879C129.386 18.7439 129.542 19.3359 129.854 19.8639C130.166 20.3919 130.594 20.8079 131.138 21.1119C131.682 21.4159 132.294 21.5679 132.974 21.5679C133.838 21.5679 134.57 21.3519 135.17 20.9199V18.0879ZM140.935 22.3479C140.327 22.3479 139.779 22.2119 139.291 21.9399C138.803 21.6599 138.419 21.2759 138.139 20.7879C137.859 20.2999 137.719 19.7479 137.719 19.1319C137.719 18.5159 137.859 17.9639 138.139 17.4759C138.419 16.9879 138.803 16.6079 139.291 16.3359C139.779 16.0639 140.327 15.9279 140.935 15.9279C141.543 15.9279 142.091 16.0639 142.579 16.3359C143.067 16.6079 143.447 16.9879 143.719 17.4759C143.999 17.9639 144.139 18.5159 144.139 19.1319C144.139 19.7479 143.999 20.2999 143.719 20.7879C143.447 21.2759 143.067 21.6599 142.579 21.9399C142.091 22.2119 141.543 22.3479 140.935 22.3479ZM140.935 21.5919C141.383 21.5919 141.783 21.4919 142.135 21.2919C142.495 21.0839 142.775 20.7919 142.975 20.4159C143.175 20.0399 143.275 19.6119 143.275 19.1319C143.275 18.6519 143.175 18.2239 142.975 17.8479C142.775 17.4719 142.495 17.1839 142.135 16.9839C141.783 16.7759 141.383 16.6719 140.935 16.6719C140.487 16.6719 140.083 16.7759 139.723 16.9839C139.371 17.1839 139.091 17.4719 138.883 17.8479C138.683 18.2239 138.583 18.6519 138.583 19.1319C138.583 19.6119 138.683 20.0399 138.883 20.4159C139.091 20.7919 139.371 21.0839 139.723 21.2919C140.083 21.4919 140.487 21.5919 140.935 21.5919ZM148.458 22.3479C147.85 22.3479 147.302 22.2119 146.814 21.9399C146.326 21.6599 145.942 21.2759 145.662 20.7879C145.382 20.2999 145.242 19.7479 145.242 19.1319C145.242 18.5159 145.382 17.9639 145.662 17.4759C145.942 16.9879 146.326 16.6079 146.814 16.3359C147.302 16.0639 147.85 15.9279 148.458 15.9279C149.066 15.9279 149.614 16.0639 150.102 16.3359C150.59 16.6079 150.97 16.9879 151.242 17.4759C151.522 17.9639 151.662 18.5159 151.662 19.1319C151.662 19.7479 151.522 20.2999 151.242 20.7879C150.97 21.2759 150.59 21.6599 150.102 21.9399C149.614 22.2119 149.066 22.3479 148.458 22.3479ZM148.458 21.5919C148.906 21.5919 149.306 21.4919 149.658 21.2919C150.018 21.0839 150.298 20.7919 150.498 20.4159C150.698 20.0399 150.798 19.6119 150.798 19.1319C150.798 18.6519 150.698 18.2239 150.498 17.8479C150.298 17.4719 150.018 17.1839 149.658 16.9839C149.306 16.7759 148.906 16.6719 148.458 16.6719C148.01 16.6719 147.606 16.7759 147.246 16.9839C146.894 17.1839 146.614 17.4719 146.406 17.8479C146.206 18.2239 146.106 18.6519 146.106 19.1319C146.106 19.6119 146.206 20.0399 146.406 20.4159C146.614 20.7919 146.894 21.0839 147.246 21.2919C147.606 21.4919 148.01 21.5919 148.458 21.5919ZM159.246 15.9759V21.5199C159.246 22.5919 158.982 23.3839 158.454 23.8959C157.934 24.4159 157.146 24.6759 156.09 24.6759C155.506 24.6759 154.95 24.5879 154.422 24.4119C153.902 24.2439 153.478 24.0079 153.15 23.7039L153.582 23.0559C153.886 23.3279 154.254 23.5399 154.686 23.6919C155.126 23.8439 155.586 23.9199 156.066 23.9199C156.866 23.9199 157.454 23.7319 157.83 23.3559C158.206 22.9879 158.394 22.4119 158.394 21.6279V20.8239C158.13 21.2239 157.782 21.5279 157.35 21.7359C156.926 21.9439 156.454 22.0479 155.934 22.0479C155.342 22.0479 154.802 21.9199 154.314 21.6639C153.834 21.3999 153.454 21.0359 153.174 20.5719C152.902 20.0999 152.766 19.5679 152.766 18.9759C152.766 18.3839 152.902 17.8559 153.174 17.3919C153.454 16.9279 153.834 16.5679 154.314 16.3119C154.794 16.0559 155.334 15.9279 155.934 15.9279C156.47 15.9279 156.954 16.0359 157.386 16.2519C157.818 16.4679 158.166 16.7799 158.43 17.1879V15.9759H159.246ZM156.018 21.2919C156.474 21.2919 156.886 21.1959 157.254 21.0039C157.622 20.8039 157.906 20.5279 158.106 20.1759C158.314 19.8239 158.418 19.4239 158.418 18.9759C158.418 18.5279 158.314 18.1319 158.106 17.7879C157.906 17.4359 157.622 17.1639 157.254 16.9719C156.894 16.7719 156.482 16.6719 156.018 16.6719C155.562 16.6719 155.15 16.7679 154.782 16.9599C154.422 17.1519 154.138 17.4239 153.93 17.7759C153.73 18.1279 153.63 18.5279 153.63 18.9759C153.63 19.4239 153.73 19.8239 153.93 20.1759C154.138 20.5279 154.422 20.8039 154.782 21.0039C155.15 21.1959 155.562 21.2919 156.018 21.2919ZM161.628 13.3839H162.48V22.2879H161.628V13.3839ZM170.347 19.3959H165.067C165.115 20.0519 165.367 20.5839 165.823 20.9919C166.279 21.3919 166.855 21.5919 167.551 21.5919C167.943 21.5919 168.303 21.5239 168.631 21.3879C168.959 21.2439 169.243 21.0359 169.483 20.7639L169.963 21.3159C169.683 21.6519 169.331 21.9079 168.907 22.0839C168.491 22.2599 168.031 22.3479 167.527 22.3479C166.879 22.3479 166.303 22.2119 165.799 21.9399C165.303 21.6599 164.915 21.2759 164.635 20.7879C164.355 20.2999 164.215 19.7479 164.215 19.1319C164.215 18.5159 164.347 17.9639 164.611 17.4759C164.883 16.9879 165.251 16.6079 165.715 16.3359C166.187 16.0639 166.715 15.9279 167.299 15.9279C167.883 15.9279 168.407 16.0639 168.871 16.3359C169.335 16.6079 169.699 16.9879 169.963 17.4759C170.227 17.9559 170.359 18.5079 170.359 19.1319L170.347 19.3959ZM167.299 16.6599C166.691 16.6599 166.179 16.8559 165.763 17.2479C165.355 17.6319 165.123 18.1359 165.067 18.7599H169.543C169.487 18.1359 169.251 17.6319 168.835 17.2479C168.427 16.8559 167.915 16.6599 167.299 16.6599Z" fill="#858585"/>
<g clip-path="url(#clip0_1163_62)">
<path d="M36.4001 17.116C36.4001 16.4864 36.3478 16.0269 36.2346 15.5504H28.877V18.3923H33.1957C33.1087 19.0985 32.6385 20.1621 31.5936 20.8768L31.579 20.972L33.9053 22.7331L34.0665 22.7488C35.5467 21.4129 36.4001 19.4474 36.4001 17.116Z" fill="#4285F4"/>
<path d="M28.877 24.6037C30.9928 24.6037 32.7691 23.923 34.0665 22.7488L31.5936 20.8768C30.9319 21.3278 30.0437 21.6426 28.877 21.6426C26.8046 21.6426 25.0458 20.3068 24.4188 18.4604L24.3269 18.468L21.9079 20.2974L21.8763 20.3834C23.1649 22.8849 25.812 24.6037 28.877 24.6037Z" fill="#34A853"/>
<path d="M24.4187 18.4604C24.2533 17.9839 24.1576 17.4733 24.1576 16.9458C24.1576 16.4183 24.2533 15.9077 24.41 15.4313L24.4057 15.3298L21.9564 13.471L21.8762 13.5083C21.3451 14.5463 21.0403 15.7121 21.0403 16.9458C21.0403 18.1796 21.3451 19.3453 21.8762 20.3833L24.4187 18.4604Z" fill="#FBBC05"/>
<path d="M28.877 12.249C30.3485 12.249 31.3411 12.8701 31.9071 13.3892L34.1187 11.279C32.7604 10.0452 30.9928 9.28795 28.877 9.28795C25.812 9.28795 23.1649 11.0067 21.8763 13.5083L24.4101 15.4313C25.0458 13.5849 26.8046 12.249 28.877 12.249Z" fill="#EB4335"/>
</g>
<defs>
<clipPath id="clip0_1163_62">
<rect width="15.3686" height="15.3686" fill="white" transform="translate(21.0396 9.28795)"/>
</clipPath>
</defs>
</svg>
